<svg width="128" height="64" viewBox="0 0 128 64" fill="none" xmlns="http://www.w3.org/2000/svg">
<g id="col 1">
<path id="Vector" d="M120 34H7V55H120V34Z" fill="black"/>
<path id="Vector_2" d="M16.344 38.832V50H14.104V38.832H16.344ZM31.1491 50H28.9091L23.8371 42.336V50H21.5971V38.816H23.8371L28.9091 46.496V38.816H31.1491V50ZM40.2587 50.112C39.4801 50.112 38.7761 49.9787 38.1467 49.712C37.5281 49.4453 37.0374 49.0613 36.6747 48.56C36.3121 48.0587 36.1254 47.4667 36.1147 46.784H38.5148C38.5468 47.2427 38.7068 47.6053 38.9948 47.872C39.2934 48.1387 39.6988 48.272 40.2108 48.272C40.7334 48.272 41.1441 48.1493 41.4427 47.904C41.7414 47.648 41.8908 47.3173 41.8908 46.912C41.8908 46.5813 41.7894 46.3093 41.5868 46.096C41.3841 45.8827 41.1281 45.7173 40.8188 45.6C40.5201 45.472 40.1041 45.3333 39.5708 45.184C38.8454 44.9707 38.2534 44.7627 37.7947 44.56C37.3468 44.3467 36.9574 44.032 36.6267 43.616C36.3067 43.1893 36.1467 42.624 36.1467 41.92C36.1467 41.2587 36.3121 40.6827 36.6428 40.192C36.9734 39.7013 37.4374 39.328 38.0347 39.072C38.6321 38.8053 39.3148 38.672 40.0828 38.672C41.2348 38.672 42.1681 38.9547 42.8828 39.52C43.6081 40.0747 44.0081 40.8533 44.0828 41.856H41.6188C41.5974 41.472 41.4321 41.1573 41.1228 40.912C40.8241 40.656 40.4241 40.528 39.9227 40.528C39.4854 40.528 39.1334 40.64 38.8668 40.864C38.6108 41.088 38.4828 41.4133 38.4828 41.84C38.4828 42.1387 38.5788 42.3893 38.7708 42.592C38.9734 42.784 39.2188 42.944 39.5068 43.072C39.8054 43.1893 40.2214 43.328 40.7548 43.488C41.4801 43.7013 42.0721 43.9147 42.5308 44.128C42.9894 44.3413 43.3841 44.6613 43.7148 45.088C44.0454 45.5147 44.2108 46.0747 44.2108 46.768C44.2108 47.3653 44.0561 47.92 43.7467 48.432C43.4374 48.944 42.9841 49.3547 42.3868 49.664C41.7894 49.9627 41.0801 50.112 40.2587 50.112ZM56.7927 38.832V40.64H53.8167V50H51.5767V40.64H48.6007V38.832H56.7927ZM63.7071 38.832V50H61.4671V38.832H63.7071ZM76.5603 38.832V40.64H73.5843V50H71.3443V40.64H68.3683V38.832H76.5603ZM83.4426 38.832V45.744C83.4426 46.5013 83.64 47.0827 84.0346 47.488C84.4293 47.8827 84.984 48.08 85.6986 48.08C86.424 48.08 86.984 47.8827 87.3786 47.488C87.7733 47.0827 87.9706 46.5013 87.9706 45.744V38.832H90.2266V45.728C90.2266 46.6773 90.0186 47.4827 89.6026 48.144C89.1973 48.7947 88.648 49.2853 87.9546 49.616C87.272 49.9467 86.5093 50.112 85.6666 50.112C84.8346 50.112 84.0773 49.9467 83.3946 49.616C82.7226 49.2853 82.1893 48.7947 81.7946 48.144C81.4 47.4827 81.2026 46.6773 81.2026 45.728V38.832H83.4426ZM103.031 38.832V40.64H100.055V50H97.8149V40.64H94.8389V38.832H103.031ZM109.945 40.64V43.44H113.705V45.216H109.945V48.176H114.185V50H107.705V38.816H114.185V40.64H109.945Z" fill="#D9D9D9"/>
<path id="Vector_3" d="M18.295 29.4125H12.67L11.815 32H7.17999L12.9625 16.1375H18.0475L23.8075 32H19.15L18.295 29.4125ZM17.1925 26.0375L15.4825 20.9075L13.795 26.0375H17.1925ZM29.6549 28.625H34.5824V32H25.2449V16.1375H29.6549V28.625ZM46.0396 22.37V26.0375H35.8471V22.37H46.0396ZM58.6874 32L53.7149 25.0475V32H49.3049V16.1375H53.7149V22.9775L58.6424 16.1375H63.7274L57.8999 23.8325L64.0199 32H58.6874ZM64.9106 25.6775C64.9106 24.3725 65.1431 23.2325 65.6081 22.2575C66.0881 21.2825 66.7331 20.5325 67.5431 20.0075C68.3681 19.4825 69.2831 19.22 70.2881 19.22C71.1581 19.22 71.9081 19.3925 72.5381 19.7375C73.1681 20.0825 73.6556 20.5475 74.0006 21.1325V19.3775H78.4106V32H74.0006V30.245C73.6556 30.83 73.1606 31.295 72.5156 31.64C71.8856 31.985 71.1431 32.1575 70.2881 32.1575C69.2831 32.1575 68.3681 31.895 67.5431 31.37C66.7331 30.845 66.0881 30.095 65.6081 29.12C65.1431 28.13 64.9106 26.9825 64.9106 25.6775ZM74.0006 25.6775C74.0006 24.8675 73.7756 24.23 73.3256 23.765C72.8906 23.3 72.3506 23.0675 71.7056 23.0675C71.0456 23.0675 70.4981 23.3 70.0631 23.765C69.6281 24.215 69.4106 24.8525 69.4106 25.6775C69.4106 26.4875 69.6281 27.1325 70.0631 27.6125C70.4981 28.0775 71.0456 28.31 71.7056 28.31C72.3506 28.31 72.8906 28.0775 73.3256 27.6125C73.7756 27.1475 74.0006 26.5025 74.0006 25.6775ZM85.3336 21.605C85.8286 20.885 86.4286 20.315 87.1336 19.895C87.8386 19.475 88.5961 19.265 89.4061 19.265V23.9675H88.1686C87.2086 23.9675 86.4961 24.155 86.0311 24.53C85.5661 24.905 85.3336 25.5575 85.3336 26.4875V32H80.9236V19.3775H85.3336V21.605ZM93.2146 18.2075C92.4346 18.2075 91.8046 17.9975 91.3246 17.5775C90.8596 17.1425 90.6271 16.6025 90.6271 15.9575C90.6271 15.2975 90.8596 14.75 91.3246 14.315C91.8046 13.88 92.4346 13.6625 93.2146 13.6625C93.9796 13.6625 94.5946 13.88 95.0596 14.315C95.5396 14.75 95.7796 15.2975 95.7796 15.9575C95.7796 16.6025 95.5396 17.1425 95.0596 17.5775C94.5946 17.9975 93.9796 18.2075 93.2146 18.2075ZM95.3971 19.3775V32H90.9871V19.3775H95.3971ZM114.401 19.265C115.991 19.265 117.236 19.745 118.136 20.705C119.051 21.665 119.508 22.9775 119.508 24.6425V32H115.098V25.2275C115.098 24.5525 114.911 24.0275 114.536 23.6525C114.161 23.2775 113.651 23.09 113.006 23.09C112.361 23.09 111.851 23.2775 111.476 23.6525C111.101 24.0275 110.913 24.5525 110.913 25.2275V32H106.503V25.2275C106.503 24.5525 106.316 24.0275 105.941 23.6525C105.581 23.2775 105.078 23.09 104.433 23.09C103.773 23.09 103.256 23.2775 102.881 23.6525C102.506 24.0275 102.318 24.5525 102.318 25.2275V32H97.9084V19.3775H102.318V21.0425C102.708 20.5025 103.211 20.075 103.826 19.76C104.456 19.43 105.176 19.265 105.986 19.265C106.916 19.265 107.741 19.4675 108.461 19.8725C109.196 20.2775 109.773 20.8475 110.193 21.5825C110.643 20.8925 111.236 20.3375 111.971 19.9175C112.706 19.4825 113.516 19.265 114.401 19.265Z" fill="#D9D9D9"/>
</g>
</svg>
